<?xml version="1.0" encoding="UTF-8"?>
<svg version="1.1" xmlns="http://www.w3.org/2000/svg" width="512" height="512">
<path d="M0 0 C1.01790619 0.00215515 2.03581238 0.0043103 3.08456421 0.00653076 C17.69363523 0.05620146 32.02575853 0.30709809 46.375 3.3125 C47.34985352 3.51117676 48.32470703 3.70985352 49.32910156 3.91455078 C97.7109774 14.03517194 141.69928269 35.9516877 177.375 70.3125 C178.3640332 71.26068604 178.3640332 71.26068604 179.37304688 72.22802734 C188.86130305 81.37247479 197.6012044 90.66984009 205.375 101.3125 C206.23306152 102.46355017 207.09113451 103.61459177 207.94921875 104.765625 C213.98736829 112.95680614 219.34595521 121.47054105 224.375 130.3125 C224.73948242 130.94430176 225.10396484 131.57610352 225.47949219 132.22705078 C247.08534998 169.97532572 256.85198095 212.74189997 256.6875 255.9375 C256.68534485 256.95540619 256.6831897 257.97331238 256.68096924 259.02206421 C256.63129854 273.63113523 256.38040191 287.96325853 253.375 302.3125 C253.07698486 303.77478027 253.07698486 303.77478027 252.77294922 305.26660156 C242.65232806 353.6484774 220.7358123 397.63678269 186.375 433.3125 C185.74287598 433.97185547 185.11075195 434.63121094 184.45947266 435.31054688 C175.31502521 444.79880305 166.01765991 453.5387044 155.375 461.3125 C154.22394983 462.17056152 153.07290823 463.02863451 151.921875 463.88671875 C143.73224019 469.92427396 135.22961724 475.30707302 126.375 480.3125 C125.66778809 480.7146875 124.96057617 481.116875 124.23193359 481.53125 C101.09654164 494.5566741 75.92537591 503.30551461 49.9375 508.625 C49.21860596 508.77235596 48.49971191 508.91971191 47.7590332 509.0715332 C33.08339502 511.86090125 18.55831162 512.66142619 3.64770508 512.62817383 C0.70811513 512.6250221 -2.2304558 512.64854926 -5.16992188 512.67382812 C-18.54306192 512.71848737 -31.43916711 511.51301542 -44.625 509.3125 C-46.33055054 509.03031616 -46.33055054 509.03031616 -48.07055664 508.74243164 C-91.33802759 500.97044532 -132.38793216 480.98345309 -165.625 452.3125 C-166.37007813 451.67828125 -167.11515625 451.0440625 -167.8828125 450.390625 C-181.38779833 438.57948485 -194.05918743 425.82889772 -204.625 411.3125 C-205.48149066 410.16255169 -206.33826433 409.01281411 -207.1953125 407.86328125 C-213.23534209 399.67315742 -218.61867614 391.16870382 -223.625 382.3125 C-224.0271875 381.60528809 -224.429375 380.89807617 -224.84375 380.16943359 C-237.8691741 357.03404164 -246.61801461 331.86287591 -251.9375 305.875 C-252.08485596 305.15610596 -252.23221191 304.43721191 -252.3840332 303.6965332 C-255.35789088 288.05024391 -255.99800362 272.57681954 -255.9375 256.6875 C-255.93534485 255.66959381 -255.9331897 254.65168762 -255.93096924 253.60293579 C-255.88129854 238.99386477 -255.63040191 224.66174147 -252.625 210.3125 C-252.42632324 209.33764648 -252.22764648 208.36279297 -252.02294922 207.35839844 C-241.90232806 158.9765226 -219.9858123 114.98821731 -185.625 79.3125 C-184.99287598 78.65314453 -184.36075195 77.99378906 -183.70947266 77.31445312 C-174.56502521 67.82619695 -165.26765991 59.0862956 -154.625 51.3125 C-153.47394983 50.45443848 -152.32290823 49.59636549 -151.171875 48.73828125 C-142.98224019 42.70072604 -134.47961724 37.31792698 -125.625 32.3125 C-124.91778809 31.9103125 -124.21057617 31.508125 -123.48193359 31.09375 C-100.34654164 18.0683259 -75.17537591 9.31948539 -49.1875 4 C-48.46860596 3.85264404 -47.74971191 3.70528809 -47.0090332 3.5534668 C-31.36274391 0.57960912 -15.88931954 -0.06050362 0 0 Z " fill="#F180FF" transform="translate(255.625,-0.3125)"/>
<path d="M0 0 C5.9506252 5.00965278 11.65782374 10.25211753 17.34155273 15.56152344 C17.84181662 16.0283252 18.3420805 16.49512695 18.85750389 16.97607422 C28.75315761 26.21574019 38.52576737 35.58158143 48.25466824 44.99642563 C54.43140464 50.96865134 60.64169559 56.89520303 66.95092773 62.72753906 C112.8949347 105.26451457 112.8949347 105.26451457 114.4933176 125.25065422 C114.70565239 133.70779044 113.37237501 141.8060434 111.42584038 150.00300598 C110.58562291 153.94323649 110.36468628 157.94004153 110.08734131 161.95072937 C109.72854618 166.363863 108.88562144 170.66658186 108 175 C107.70198486 176.47098145 107.70198486 176.47098145 107.39794922 177.97167969 C97.2726321 226.34566662 75.35592357 270.3293585 41 306 C40.36787598 306.65935547 39.73575195 307.31871094 39.08447266 307.99804688 C29.94002521 317.48630305 20.64265991 326.2262044 10 334 C8.84894983 334.85806152 7.69790823 335.71613451 6.546875 336.57421875 C-1.64275981 342.61177396 -10.14538276 347.99457302 -19 353 C-19.70721191 353.4021875 -20.41442383 353.804375 -21.14306641 354.21875 C-47.07320592 368.81764095 -75.66635881 378.19151468 -105 383 C-105.71140137 383.11714355 -106.42280273 383.23428711 -107.15576172 383.35498047 C-111.30401269 384.00711149 -115.42655306 384.41363473 -119.61452866 384.74388123 C-122.02822428 385.00303033 -124.35233143 385.45066421 -126.73330688 385.91918945 C-134.06036624 387.01649453 -140.59093018 387.05877759 -147.09050751 383.13360596 C-154.90012994 377.0949166 -161.66402521 369.93716913 -168.4428668 362.78779984 C-171.42677282 359.66511882 -174.47433487 356.60578451 -177.51528931 353.53881836 C-183.24774705 347.73833619 -188.92187685 341.88418649 -194.57650435 336.00791454 C-201.02352126 329.31385843 -207.53412491 322.68315066 -214.05045772 316.05666161 C-227.43823306 302.43973956 -240.74530296 288.74643252 -254 275 C-247.14312983 261.08280395 -236.91447244 246.7736987 -222 241 C-206.53955588 237.23455887 -189.52283788 238.63428365 -173.765625 239.18286133 C-172.9564648 239.21077413 -172.14730459 239.23868692 -171.31362438 239.26744556 C-167.45835363 239.40851651 -163.61134316 239.58599998 -159.76179504 239.83985901 C-150.88742358 240.36482727 -142.49217593 240.22145173 -135.14753723 234.57614136 C-131.88513101 231.20340433 -130.38088456 227.65454297 -128.83984375 223.25390625 C-128.49171631 222.26849854 -128.14358887 221.28309082 -127.78491211 220.26782227 C-127.52589111 219.51944092 -127.26687012 218.77105957 -127 218 C-128.12149445 218.00888245 -129.24298889 218.01776489 -130.39846802 218.0269165 C-141.01910622 218.10835506 -151.63968024 218.1681337 -162.26056099 218.20724869 C-167.71957642 218.22803482 -173.17833777 218.25618684 -178.63720703 218.30175781 C-183.91515439 218.3455377 -189.1928589 218.36920442 -194.47097397 218.37950897 C-196.47460624 218.38684306 -198.47822674 218.40116312 -200.4817543 218.42292023 C-220.41248078 218.63055186 -235.66657504 215.48468163 -250.67578125 201.41796875 C-262.7306161 188.87688846 -266.35243172 174.46609887 -266.1953125 157.52734375 C-266.1924826 156.3636879 -266.18965271 155.20003204 -266.18673706 154.00111389 C-266.17561231 150.31313451 -266.15052183 146.62540501 -266.125 142.9375 C-266.11496025 140.42513374 -266.10583615 137.91276363 -266.09765625 135.40039062 C-266.07569823 129.26684295 -266.04229793 123.13343934 -266 117 C-265.53520233 117.40679489 -265.07040466 117.81358978 -264.59152222 118.23271179 C-263.66425827 119.03730583 -263.66425827 119.03730583 -262.71826172 119.8581543 C-261.80450272 120.65397163 -261.80450272 120.65397163 -260.87228394 121.46586609 C-259.14511304 122.88109558 -257.39828564 124.08643384 -255.5078125 125.26953125 C-251.30620661 128.2520967 -248.11535068 131.22292684 -246 136 C-244.82148154 142.95484019 -244.84667567 149.92059872 -245.04541016 156.95629883 C-245.35843472 168.58220849 -243.7146769 177.80488772 -236.05859375 186.9921875 C-230.84877914 192.07348676 -223.24392357 196.86071036 -215.78819656 197.05875015 C-213.08856916 196.94617645 -210.40169466 196.76241798 -207.70751953 196.55712891 C-205.57804622 196.42029687 -203.44841279 196.28594039 -201.31864929 196.15370178 C-200.19081213 196.08189257 -199.06297497 196.01008335 -197.90096092 195.9360981 C-107.87715397 190.57441632 -107.87715397 190.57441632 -84.99739838 210.33023071 C-80.99144586 213.97518516 -77.40060158 217.90361965 -73.9375 222.0625 C-73.45985451 222.63575264 -72.98220901 223.20900528 -72.49008942 223.79962921 C-66.68002428 230.87551526 -61.87387207 238.1860543 -57 246 C-56.67 230.16 -56.34 214.32 -56 198 C-40.6875 197.75 -40.6875 197.75 -35.9284668 197.70214844 C-24.25608918 197.4211892 -13.61325726 195.49992493 -5 187 C3.49982479 176.76157469 4.4478659 166.69069105 4.40405273 153.72485352 C4.40976376 152.19296778 4.41673084 150.66108629 4.42485046 149.12921143 C4.44271584 144.99071322 4.44162609 140.85242782 4.43590808 136.71390271 C4.43280672 133.24983076 4.43891915 129.78579913 4.44494683 126.32173294 C4.45896859 118.14536237 4.45745026 109.96909635 4.44604492 101.79272461 C4.43456482 93.37714396 4.44864285 84.96188205 4.4754414 76.54634339 C4.49764106 69.3018815 4.50422622 62.05751936 4.49836498 54.81302589 C4.49500454 50.49459726 4.49734955 46.1763729 4.51461601 41.8579731 C4.53015147 37.79564034 4.52605714 33.73377765 4.50731087 29.67146301 C4.50364321 28.18726627 4.50667986 26.70303418 4.51719666 25.21887016 C4.56752972 17.52370209 4.23854413 10.90302357 0.85736179 3.8412466 C0 2 0 2 0 0 Z " fill="#C252FF" transform="translate(401,127)"/>
<path d="M0 0 C0.78463651 -0.00367669 1.56927301 -0.00735338 2.37768638 -0.01114148 C5.00365918 -0.0221436 7.62959236 -0.02601626 10.25558472 -0.02983093 C12.13992945 -0.03609823 14.02427295 -0.04274527 15.90861511 -0.04974365 C22.09441268 -0.07075572 28.28021041 -0.08114377 34.46603394 -0.09111023 C36.5983265 -0.09515893 38.73061893 -0.09927589 40.86291122 -0.10346031 C50.88222297 -0.12250615 60.90152737 -0.13673815 70.92085373 -0.14507228 C82.47312365 -0.15484107 94.02520178 -0.18115388 105.57740414 -0.22157317 C114.51518416 -0.25176816 123.4529093 -0.26654439 132.39073932 -0.26985329 C137.72481419 -0.2722 143.05868402 -0.28111114 148.39270401 -0.30631447 C153.4144107 -0.32965919 158.43577828 -0.33380268 163.45752525 -0.32355309 C165.29446099 -0.32305916 167.13141379 -0.32933698 168.96829796 -0.34310913 C181.87752418 -0.43443452 192.71123241 0.39171248 203.07150269 9.02217102 C210.09743084 16.22010872 214.38341596 24.66083065 214.41314697 34.75500488 C214.42594193 36.725065 214.42594193 36.725065 214.43899536 38.73492432 C214.43829642 40.17857373 214.4373734 41.62222305 214.43624878 43.06587219 C214.44223733 44.59569119 214.44904363 46.12550718 214.456604 47.65531921 C214.47424141 51.80228069 214.47895853 55.94915957 214.48023558 60.09615493 C214.48165941 62.69100723 214.48593349 65.28583869 214.49123001 67.88068581 C214.50972527 76.94486951 214.51790156 86.00899447 214.5163269 95.07319641 C214.51512676 103.5028824 214.53620529 111.93231182 214.56781423 120.36193293 C214.59403183 127.61398266 214.60469185 134.86594891 214.60341609 142.11804563 C214.60290791 146.44271292 214.6085102 150.76715228 214.62977219 155.09177208 C214.64924642 159.16389704 214.64921693 163.23557888 214.63473892 167.30772018 C214.6326608 168.79472698 214.63729171 170.28176217 214.64945984 171.76872063 C214.74139729 183.79100747 213.04357976 193.70654671 205.12619019 203.14326477 C197.96039164 210.39386566 189.53968443 214.21142406 179.35301208 214.42855835 C175.76150582 214.44849642 172.1743169 214.39640749 168.58322144 214.33467102 C163.48884644 214.27279602 158.39447144 214.21092102 153.14572144 214.14717102 C153.14572144 230.31717102 153.14572144 246.48717102 153.14572144 263.14717102 C145.3295118 256.44756276 145.3295118 256.44756276 143.28878784 252.62641907 C134.28653011 236.92813838 121.99231984 220.95230563 104.14572144 215.14717102 C73.74828912 208.29210657 39.28476536 211.84486419 8.43353271 213.6807251 C7.34314886 213.73869168 6.25276501 213.79665827 5.12933922 213.85638142 C3.11651259 213.96541092 1.10451965 214.09214237 -0.90572166 214.24143505 C-10.65232104 214.74712393 -18.37365794 211.29387786 -25.81521606 205.12763977 C-33.50250141 197.66125343 -36.94321165 188.80984147 -37.23522949 178.20307922 C-37.25297932 175.45027098 -37.25486303 172.70049786 -37.24246216 169.94795227 C-37.24653356 168.42429733 -37.25187861 166.90064535 -37.25839233 165.3769989 C-37.27200426 161.26128191 -37.26679277 157.14579193 -37.25725508 153.03007126 C-37.24962659 148.71013048 -37.25671291 144.39020832 -37.26141357 140.07026672 C-37.26686187 132.81754591 -37.25970388 125.56491693 -37.24539185 118.31221008 C-37.2290671 109.94323396 -37.23435627 101.57447714 -37.25087106 93.20550632 C-37.26451238 86.00267703 -37.26639268 78.79991351 -37.25855505 71.59707546 C-37.25389305 67.30275315 -37.25321296 63.00853372 -37.26316452 58.71421814 C-37.27187053 54.67575 -37.26574642 50.63756289 -37.24848175 46.59912491 C-37.24453622 45.12257477 -37.24561758 43.64600072 -37.25226974 42.1694603 C-37.30555383 29.13429882 -35.37466254 19.0912386 -26.19021606 9.38935852 C-18.33091537 2.24780218 -10.48073115 -0.00265097 0 0 Z " fill="#FEFEFF" transform="translate(191.85427856445313,110.85282897949219)"/>
<path d="M0 0 C1.34989014 0.00845947 1.34989014 0.00845947 2.72705078 0.01708984 C3.4126709 0.02434082 4.09829102 0.0315918 4.8046875 0.0390625 C4.80833313 0.66974136 4.81197876 1.30042023 4.81573486 1.95021057 C4.85794131 8.58687605 4.92754643 15.22287425 5.01220703 21.85913086 C5.04022173 24.32716152 5.06153193 26.79527865 5.07568359 29.26342773 C5.21119594 51.57327708 6.54326513 68.8568888 22.46484375 85.78515625 C32.96849271 95.90302845 46.50473923 100.14658337 60.81762695 100.24438477 C61.71568558 100.25428436 62.6137442 100.26418396 63.53901672 100.27438354 C66.49864085 100.30589613 69.45828102 100.33071542 72.41796875 100.35546875 C74.47348948 100.37604712 76.52900607 100.39704383 78.58451843 100.41844177 C83.98821651 100.47357121 89.3919522 100.5230207 94.79571533 100.57128906 C100.31241188 100.62157079 105.82905398 100.67722201 111.34570312 100.73242188 C122.16531803 100.83989178 132.98498028 100.94136149 143.8046875 101.0390625 C143.51404799 102.47263247 143.21566085 103.90463298 142.9140625 105.3359375 C142.74874023 106.13354492 142.58341797 106.93115234 142.41308594 107.75292969 C140.87083711 113.54812149 136.77987842 117.8766831 131.8046875 121.0390625 C124.5118133 124.84194909 117.04307972 124.1103899 109.09313774 123.59816551 C71.20966376 119.73739265 71.20966376 119.73739265 37.05859375 131.99609375 C30.17600956 138.1023197 24.44669267 145.41296362 19.58959961 153.20922852 C19.00057861 154.14307373 18.41155762 155.07691895 17.8046875 156.0390625 C17.4746875 156.0390625 17.1446875 156.0390625 16.8046875 156.0390625 C16.8046875 145.1490625 16.8046875 134.2590625 16.8046875 123.0390625 C8.98123292 123.27485526 8.98123292 123.27485526 1.16040039 123.57958984 C-6.63399264 123.69725538 -11.3148767 122.18908107 -17.1953125 117.0390625 C-22.70887037 111.67059826 -24.50450248 104.15157709 -24.62411499 96.63615417 C-24.62118439 95.88940933 -24.61825378 95.14266449 -24.61523438 94.37329102 C-24.62370392 93.55898621 -24.63217346 92.7446814 -24.64089966 91.90570068 C-24.6640909 89.24295974 -24.66529623 86.58080257 -24.6640625 83.91796875 C-24.67117413 82.04906489 -24.67887458 80.18016318 -24.68713379 78.31126404 C-24.70053702 74.4052828 -24.7021658 70.49950357 -24.69628906 66.59350586 C-24.69039247 61.6092626 -24.72100235 56.62599322 -24.76140594 51.64193821 C-24.78735975 47.78552608 -24.7901535 43.92934623 -24.78651428 40.07285881 C-24.78819788 38.23619067 -24.79776657 36.39951092 -24.81565857 34.56292915 C-24.9818938 15.39400412 -24.9818938 15.39400412 -19.1953125 8.0390625 C-13.43985886 2.54865343 -8.01466568 -0.06515988 0 0 Z " fill="#FEFDFF" transform="translate(130.1953125,243.9609375)"/>
<path d="M0 0 C1.4299379 -0.01073296 1.4299379 -0.01073296 2.88876343 -0.02168274 C3.9381308 -0.02437164 4.98749817 -0.02706055 6.06866455 -0.02983093 C7.17122589 -0.03640213 8.27378723 -0.04297333 9.40975952 -0.04974365 C13.07112693 -0.06951026 16.73245326 -0.0811468 20.39385986 -0.09111023 C21.64224892 -0.09518576 22.89063797 -0.09926128 24.17685699 -0.10346031 C30.10248089 -0.12218123 36.02809168 -0.13674354 41.95373797 -0.14507228 C48.78978539 -0.15483954 55.62550856 -0.18114438 62.46144176 -0.22157317 C68.38490442 -0.25540069 74.30828786 -0.26721974 80.23184967 -0.27127647 C82.75005542 -0.27615312 85.26825745 -0.28779755 87.78639984 -0.30631447 C91.31043906 -0.33061706 94.83362998 -0.32975659 98.35772705 -0.32279968 C99.3989975 -0.33560974 100.44026794 -0.3484198 101.51309204 -0.36161804 C107.4665362 -0.31876001 110.95123972 0.14617465 115.47198486 4.14717102 C116.60190541 6.40701211 116.76998443 7.94443589 116.90948486 10.45967102 C116.9700708 11.21892883 117.03065674 11.97818665 117.09307861 12.76045227 C116.3172817 15.74165928 114.85978474 17.1810157 112.47639656 19.07490158 C108.36094784 21.27648018 103.78199 20.83788175 99.22174072 20.79414368 C97.5353524 20.80728607 97.5353524 20.80728607 95.81489563 20.82069397 C92.1051454 20.84266948 88.39659059 20.8281412 84.68682861 20.81123352 C82.10663118 20.81460191 79.52643529 20.81945471 76.94624329 20.82572937 C71.54181324 20.83309809 66.13783136 20.8228718 60.73345947 20.79902649 C54.49156199 20.77180331 48.25048083 20.78064222 42.00860304 20.80815852 C35.99423848 20.83360705 29.98027235 20.83088318 23.96585274 20.81624985 C21.41055754 20.8129131 18.85524151 20.81701227 16.29997063 20.82864761 C12.73036228 20.84133582 9.16232564 20.82200493 5.59283447 20.79414368 C4.53555145 20.80426483 3.47826843 20.81438599 2.38894653 20.82481384 C-4.78380844 20.72101077 -4.78380844 20.72101077 -8.66056824 17.73173523 C-11.40808659 13.92914378 -12.07329431 11.87292383 -11.52801514 7.14717102 C-8.47587573 2.21591594 -5.75776476 0.02960837 0 0 Z " fill="#C254FF" transform="translate(227.52801513671875,260.8528289794922)"/>
<path d="M0 0 C1.13386642 -0.0087616 2.26773285 -0.01752319 3.43595886 -0.02655029 C7.18360674 -0.04855496 10.93007452 -0.03398617 14.67773438 -0.01708984 C17.28178128 -0.02045763 19.88582665 -0.02530993 22.48986816 -0.03158569 C27.94731428 -0.04067468 33.40442175 -0.02871455 38.86181641 -0.00488281 C45.16560648 0.02232766 51.46858794 0.01351291 57.77235842 -0.01401484 C63.84384643 -0.03946401 69.91497678 -0.03673859 75.98649597 -0.02210617 C78.56691094 -0.01876895 81.14734652 -0.02287025 83.72773743 -0.03450394 C87.33337189 -0.04719212 90.9374503 -0.02786051 94.54296875 0 C95.61117355 -0.01012115 96.67937836 -0.02024231 97.779953 -0.03067017 C105.0149925 0.07298529 105.0149925 0.07298529 108.9317627 3.04483032 C111.36199314 6.48220109 111.48927912 8.40707116 111.27148438 12.49072266 C110.47149185 15.94069043 108.51555443 17.55625262 105.77148438 19.64697266 C103.39395135 20.83573917 101.93498666 20.78037604 99.28143311 20.79414368 C97.86411644 20.80487663 97.86411644 20.80487663 96.41816711 20.81582642 C95.37815048 20.81851532 94.33813385 20.82120422 93.26660156 20.82397461 C92.17379379 20.83054581 91.08098602 20.837117 89.95506287 20.84388733 C86.32616107 20.86365358 82.69730071 20.87529042 79.06835938 20.88525391 C77.83100288 20.88932943 76.59364639 20.89340496 75.31879425 20.89760399 C69.44549611 20.91632482 63.57221119 20.93088714 57.69889045 20.93921596 C50.92340226 20.94898305 44.14824124 20.97528747 37.3728683 21.01571685 C31.50171779 21.04954569 25.63067678 21.06136352 19.75943756 21.06542015 C17.2635603 21.07029661 14.7676868 21.0819405 12.27187347 21.10045815 C8.77896495 21.12476246 5.28691222 21.12389996 1.79394531 21.11694336 C0.7620256 21.12975342 -0.2698941 21.14256348 -1.33308411 21.15576172 C-7.28809498 21.11251516 -10.6800189 20.59486361 -15.22851562 16.64697266 C-17.33709015 13.98833521 -17.22875177 12.65996059 -17.16601562 9.20947266 C-14.69454162 -0.18212855 -8.36388188 -0.07924711 0 0 Z " fill="#C356FF" transform="translate(233.228515625,154.35302734375)"/>
<path d="M0 0 C1.11450531 -0.00584106 2.22901062 -0.01168213 3.37728882 -0.0177002 C7.05507439 -0.02810376 10.73042162 0.01171799 14.40795898 0.05322266 C16.96572961 0.05866591 19.52350717 0.06144625 22.08128357 0.06167603 C27.43883904 0.06940353 32.79555707 0.09949504 38.15283203 0.14941406 C44.34005705 0.20689803 50.52661716 0.22972816 56.71409374 0.23229825 C62.67610206 0.23494377 68.63792567 0.25528253 74.59986687 0.28508377 C77.13281836 0.29714885 79.66578818 0.3058491 82.19876289 0.31113815 C85.73698788 0.32234376 89.27446434 0.35348128 92.8125 0.390625 C93.86043228 0.39083649 94.90836456 0.39104797 95.98805237 0.39126587 C102.42726581 0.48620506 106.15783206 1.15856449 110.84155273 5.84228516 C111.41194531 8.89838855 111.37528043 11.78259865 110.84155273 14.84228516 C108.65996128 17.59797962 106.9697778 19.27817262 103.84155273 20.84228516 C102.33252783 20.94292715 100.8191658 20.98169126 99.30680847 20.98945618 C98.35207138 20.99661148 97.39733429 21.00376678 96.41366577 21.01113892 C95.36272736 21.01382782 94.31178894 21.01651672 93.22900391 21.01928711 C92.12483627 21.02585831 91.02066864 21.0324295 89.88304138 21.03919983 C86.21686746 21.05896477 82.55073453 21.070602 78.88452148 21.08056641 C77.01006568 21.0866797 77.01006568 21.0866797 75.09774208 21.09291649 C69.16731482 21.11163596 63.23690066 21.12619925 57.30645102 21.13452846 C50.46190386 21.1443003 43.61768014 21.17061788 36.77324694 21.21102935 C30.84444142 21.24483272 24.91571514 21.25667385 18.98681068 21.26073265 C16.46498737 21.26561272 13.94316785 21.27726678 11.4214077 21.29577065 C7.89476963 21.32004121 4.36898065 21.31921881 0.84228516 21.31225586 C-0.20258057 21.32506592 -1.24744629 21.33787598 -2.32397461 21.35107422 C-9.39725277 21.30008198 -9.39725277 21.30008198 -13.22099304 19.00041199 C-15.54771956 16.40867544 -17.02847227 14.55714761 -17.65844727 11.09228516 C-16.11728794 1.07474954 -8.83346462 -0.17274739 0 0 Z " fill="#C253FF" transform="translate(233.158447265625,207.15771484375)"/>
<path d="M0 0 C0.92941406 0.31710937 1.85882813 0.63421875 2.81640625 0.9609375 C7.7927469 2.38274912 12.79311369 2.45562097 17.9375 2.625 C21.258125 2.74875 24.57875 2.8725 28 3 C28 11.25 28 19.5 28 28 C23.7154194 24.32750234 19.68519905 20.81271048 15.72265625 16.85546875 C14.33530273 15.47004883 14.33530273 15.47004883 12.91992188 14.05664062 C12.45126709 13.58589111 11.9826123 13.1151416 11.49975586 12.63012695 C10.04460429 11.16953741 8.58408143 9.71446797 7.12304688 8.25976562 C5.74922852 6.88401367 5.74922852 6.88401367 4.34765625 5.48046875 C3.51242432 4.64410889 2.67719238 3.80774902 1.81665039 2.94604492 C0 1 0 1 0 0 Z " fill="#C252FF" transform="translate(118,365)"/>
</svg>
